<svg id="visual" viewBox="0 0 960 540" width="960" height="540" xmlns="http://www.w3.org/2000/svg" xmlns:xlink="http://www.w3.org/1999/xlink" version="1.1"><rect x="0" y="0" width="960" height="540" fill="#EACBC6"></rect><defs><linearGradient id="grad1_0" x1="43.8%" y1="100%" x2="100%" y2="0%"><stop offset="14.444444444444446%" stop-color="#cf9174" stop-opacity="1"></stop><stop offset="85.55555555555554%" stop-color="#cf9174" stop-opacity="1"></stop></linearGradient></defs><defs><linearGradient id="grad1_1" x1="43.8%" y1="100%" x2="100%" y2="0%"><stop offset="14.444444444444446%" stop-color="#cf9174" stop-opacity="1"></stop><stop offset="85.55555555555554%" stop-color="#d49980" stop-opacity="1"></stop></linearGradient></defs><defs><linearGradient id="grad1_2" x1="43.8%" y1="100%" x2="100%" y2="0%"><stop offset="14.444444444444446%" stop-color="#d9a18c" stop-opacity="1"></stop><stop offset="85.55555555555554%" stop-color="#d49980" stop-opacity="1"></stop></linearGradient></defs><defs><linearGradient id="grad1_3" x1="43.8%" y1="100%" x2="100%" y2="0%"><stop offset="14.444444444444446%" stop-color="#d9a18c" stop-opacity="1"></stop><stop offset="85.55555555555554%" stop-color="#dda998" stop-opacity="1"></stop></linearGradient></defs><defs><linearGradient id="grad1_4" x1="43.8%" y1="100%" x2="100%" y2="0%"><stop offset="14.444444444444446%" stop-color="#e1b1a4" stop-opacity="1"></stop><stop offset="85.55555555555554%" stop-color="#dda998" stop-opacity="1"></stop></linearGradient></defs><defs><linearGradient id="grad1_5" x1="43.8%" y1="100%" x2="100%" y2="0%"><stop offset="14.444444444444446%" stop-color="#e1b1a4" stop-opacity="1"></stop><stop offset="85.55555555555554%" stop-color="#e4bab0" stop-opacity="1"></stop></linearGradient></defs><defs><linearGradient id="grad1_6" x1="43.8%" y1="100%" x2="100%" y2="0%"><stop offset="14.444444444444446%" stop-color="#e7c2bb" stop-opacity="1"></stop><stop offset="85.55555555555554%" stop-color="#e4bab0" stop-opacity="1"></stop></linearGradient></defs><defs><linearGradient id="grad1_7" x1="43.8%" y1="100%" x2="100%" y2="0%"><stop offset="14.444444444444446%" stop-color="#e7c2bb" stop-opacity="1"></stop><stop offset="85.55555555555554%" stop-color="#eacbc6" stop-opacity="1"></stop></linearGradient></defs><defs><linearGradient id="grad2_0" x1="0%" y1="100%" x2="56.3%" y2="0%"><stop offset="14.444444444444446%" stop-color="#cf9174" stop-opacity="1"></stop><stop offset="85.55555555555554%" stop-color="#cf9174" stop-opacity="1"></stop></linearGradient></defs><defs><linearGradient id="grad2_1" x1="0%" y1="100%" x2="56.3%" y2="0%"><stop offset="14.444444444444446%" stop-color="#d49980" stop-opacity="1"></stop><stop offset="85.55555555555554%" stop-color="#cf9174" stop-opacity="1"></stop></linearGradient></defs><defs><linearGradient id="grad2_2" x1="0%" y1="100%" x2="56.3%" y2="0%"><stop offset="14.444444444444446%" stop-color="#d49980" stop-opacity="1"></stop><stop offset="85.55555555555554%" stop-color="#d9a18c" stop-opacity="1"></stop></linearGradient></defs><defs><linearGradient id="grad2_3" x1="0%" y1="100%" x2="56.3%" y2="0%"><stop offset="14.444444444444446%" stop-color="#dda998" stop-opacity="1"></stop><stop offset="85.55555555555554%" stop-color="#d9a18c" stop-opacity="1"></stop></linearGradient></defs><defs><linearGradient id="grad2_4" x1="0%" y1="100%" x2="56.3%" y2="0%"><stop offset="14.444444444444446%" stop-color="#dda998" stop-opacity="1"></stop><stop offset="85.55555555555554%" stop-color="#e1b1a4" stop-opacity="1"></stop></linearGradient></defs><defs><linearGradient id="grad2_5" x1="0%" y1="100%" x2="56.3%" y2="0%"><stop offset="14.444444444444446%" stop-color="#e4bab0" stop-opacity="1"></stop><stop offset="85.55555555555554%" stop-color="#e1b1a4" stop-opacity="1"></stop></linearGradient></defs><defs><linearGradient id="grad2_6" x1="0%" y1="100%" x2="56.3%" y2="0%"><stop offset="14.444444444444446%" stop-color="#e4bab0" stop-opacity="1"></stop><stop offset="85.55555555555554%" stop-color="#e7c2bb" stop-opacity="1"></stop></linearGradient></defs><defs><linearGradient id="grad2_7" x1="0%" y1="100%" x2="56.3%" y2="0%"><stop offset="14.444444444444446%" stop-color="#eacbc6" stop-opacity="1"></stop><stop offset="85.55555555555554%" stop-color="#e7c2bb" stop-opacity="1"></stop></linearGradient></defs><g transform="translate(960, 540)"><path d="M-513 0C-460.3 -66.6 -407.7 -133.1 -371.5 -214.5C-335.4 -295.9 -315.7 -392.1 -256.5 -444.3C-197.3 -496.5 -98.7 -504.7 0 -513L0 0Z" fill="#e9c7c0"></path><path d="M-448.9 0C-402.8 -58.2 -356.7 -116.5 -325.1 -187.7C-293.4 -258.9 -276.2 -343 -224.4 -388.7C-172.7 -434.4 -86.3 -441.7 0 -448.9L0 0Z" fill="#e6beb5"></path><path d="M-384.7 0C-345.3 -49.9 -305.8 -99.8 -278.6 -160.9C-251.5 -221.9 -236.8 -294 -192.4 -333.2C-148 -372.4 -74 -378.6 0 -384.7L0 0Z" fill="#e3b5aa"></path><path d="M-320.6 0C-287.7 -41.6 -254.8 -83.2 -232.2 -134.1C-209.6 -184.9 -197.3 -245 -160.3 -277.7C-123.3 -310.3 -61.7 -315.5 0 -320.6L0 0Z" fill="#dfad9e"></path><path d="M-256.5 0C-230.2 -33.3 -203.8 -66.6 -185.8 -107.3C-167.7 -147.9 -157.8 -196 -128.3 -222.1C-98.7 -248.2 -49.3 -252.4 0 -256.5L0 0Z" fill="#dba592"></path><path d="M-192.4 0C-172.6 -25 -152.9 -49.9 -139.3 -80.4C-125.8 -111 -118.4 -147 -96.2 -166.6C-74 -186.2 -37 -189.3 0 -192.4L0 0Z" fill="#d79d86"></path><path d="M-128.2 0C-115.1 -16.6 -101.9 -33.3 -92.9 -53.6C-83.8 -74 -78.9 -98 -64.1 -111.1C-49.3 -124.1 -24.7 -126.2 0 -128.2L0 0Z" fill="#d2957a"></path><path d="M-64.1 0C-57.5 -8.3 -51 -16.6 -46.4 -26.8C-41.9 -37 -39.5 -49 -32.1 -55.5C-24.7 -62.1 -12.3 -63.1 0 -64.1L0 0Z" fill="#cf9174"></path></g><g transform="translate(0, 0)"><path d="M513 0C504.7 98.7 496.5 197.3 444.3 256.5C392.1 315.7 295.9 335.4 214.5 371.5C133.1 407.7 66.6 460.3 0 513L0 0Z" fill="#e9c7c0"></path><path d="M448.9 0C441.7 86.3 434.4 172.7 388.7 224.4C343 276.2 258.9 293.4 187.7 325.1C116.5 356.7 58.2 402.8 0 448.9L0 0Z" fill="#e6beb5"></path><path d="M384.8 0C378.6 74 372.4 148 333.2 192.4C294 236.8 221.9 251.5 160.9 278.6C99.8 305.8 49.9 345.3 0 384.8L0 0Z" fill="#e3b5aa"></path><path d="M320.6 0C315.5 61.7 310.3 123.3 277.7 160.3C245 197.3 184.9 209.6 134.1 232.2C83.2 254.8 41.6 287.7 0 320.6L0 0Z" fill="#dfad9e"></path><path d="M256.5 0C252.4 49.3 248.2 98.7 222.1 128.2C196 157.8 147.9 167.7 107.3 185.8C66.6 203.8 33.3 230.2 0 256.5L0 0Z" fill="#dba592"></path><path d="M192.4 0C189.3 37 186.2 74 166.6 96.2C147 118.4 111 125.8 80.4 139.3C49.9 152.9 25 172.6 0 192.4L0 0Z" fill="#d79d86"></path><path d="M128.3 0C126.2 24.7 124.1 49.3 111.1 64.1C98 78.9 74 83.8 53.6 92.9C33.3 101.9 16.6 115.1 0 128.3L0 0Z" fill="#d2957a"></path><path d="M64.1 0C63.1 12.3 62.1 24.7 55.5 32.1C49 39.5 37 41.9 26.8 46.4C16.6 51 8.3 57.5 0 64.1L0 0Z" fill="#cf9174"></path></g></svg>